<?xml version="1.0" encoding="utf-8"?>
<!-- Generator: Adobe Illustrator 22.1.0, SVG Export Plug-In . SVG Version: 6.00 Build 0)  -->
<svg version="1.1" id="Layer_1" xmlns="http://www.w3.org/2000/svg" xmlns:xlink="http://www.w3.org/1999/xlink" x="0px" y="0px"
	 viewBox="0 0 200 50" style="enable-background:new 0 0 200 50;" xml:space="preserve">
<style type="text/css">
	.st0{fill:#4D4D4D;}
	.st1{fill:#66FFCC;}
	.st2{fill:#33CC99;}
</style>
<title>logo</title>
<g>
	<path class="st0" d="M72.1,38.1L61.2,13.5c-0.1-0.3-0.3-0.4-0.6-0.4h-0.4c-0.3,0-0.5,0.1-0.6,0.4l-11,24.6c-0.1,0.2-0.1,0.5,0,0.7
		S49,39,49.3,39h1.4c0.3,0,0.5-0.1,0.6-0.4l2.6-6l6.3-14.3h0.3l6.4,14.5l2.6,5.8c0.1,0.3,0.3,0.4,0.6,0.4h1.4c0.3,0,0.5-0.1,0.6-0.3
		C72.2,38.5,72.2,38.3,72.1,38.1 M76.8,38.3V14.1c0-0.2,0.1-0.4,0.2-0.5c0.1-0.1,0.3-0.2,0.5-0.2h1.4c0.2,0,0.4,0.1,0.5,0.2
		c0.1,0.1,0.2,0.3,0.2,0.5v22.4h10.4c0.2,0,0.4,0.1,0.5,0.2c0.1,0.1,0.2,0.3,0.2,0.5v1.1c0,0.2-0.1,0.4-0.2,0.5
		c-0.1,0.1-0.3,0.2-0.5,0.2H77.5c-0.2,0-0.4-0.1-0.5-0.2C76.8,38.7,76.8,38.5,76.8,38.3 M97.2,38.3V15.9h-6.3
		c-0.2,0-0.4-0.1-0.5-0.2c-0.1-0.1-0.2-0.3-0.2-0.5v-1.1c0-0.2,0.1-0.4,0.2-0.5c0.1-0.1,0.3-0.2,0.5-0.2h15.3c0.2,0,0.4,0.1,0.5,0.2
		c0.1,0.1,0.2,0.3,0.2,0.5v1.1c0,0.2-0.1,0.4-0.2,0.5c-0.1,0.1-0.3,0.2-0.5,0.2h-6.3v22.4c0,0.2-0.1,0.3-0.2,0.5
		c-0.1,0.1-0.3,0.2-0.5,0.2h-1.4c-0.2,0-0.4-0.1-0.5-0.2C97.3,38.7,97.2,38.5,97.2,38.3 M114.9,18.8c-2,2.1-3.1,4.6-3.1,7.5
		s1,5.4,3.1,7.5c2,2.1,4.5,3.1,7.4,3.1c2.9,0,5.3-1,7.4-3.1c2.1-2.1,3.1-4.6,3.1-7.5c0-2.9-1-5.4-3.1-7.5c-2.1-2.1-4.5-3.1-7.4-3.1
		C119.4,15.6,116.9,16.7,114.9,18.8 M113.1,35.6c-2.5-2.5-3.8-5.6-3.8-9.3c0-3.7,1.3-6.8,3.8-9.3c2.5-2.6,5.6-3.9,9.2-3.9
		c3.6,0,6.7,1.3,9.2,3.9c2.5,2.6,3.8,5.7,3.8,9.3c0,3.7-1.3,6.8-3.8,9.3c-2.5,2.5-5.6,3.8-9.2,3.8C118.7,39.4,115.6,38.1,113.1,35.6
		 M141.5,38.3V14.1c0-0.2,0.1-0.3,0.2-0.5c0.1-0.1,0.3-0.2,0.5-0.2h1.4c0.2,0,0.3,0.1,0.5,0.2c0.1,0.1,0.2,0.3,0.2,0.5v24.2
		c0,0.2-0.1,0.3-0.2,0.5c-0.1,0.1-0.3,0.2-0.5,0.2h-1.4c-0.2,0-0.3-0.1-0.5-0.2C141.6,38.7,141.5,38.5,141.5,38.3 M155.1,36.5h5.4
		c3,0,5.4-1,7.3-2.9c1.9-1.9,2.9-4.4,2.9-7.4s-1-5.5-2.9-7.4c-1.9-1.9-4.4-2.9-7.3-2.9h-5.4V36.5z M152.4,38.3V14.1
		c0-0.2,0.1-0.4,0.2-0.5c0.1-0.1,0.3-0.2,0.4-0.2h8.1c3.5,0,6.5,1.2,8.9,3.7c2.5,2.5,3.7,5.5,3.7,9c0,3.5-1.2,6.6-3.7,9.1
		c-2.5,2.5-5.5,3.8-8.9,3.8H153c-0.2,0-0.3-0.1-0.4-0.2C152.4,38.7,152.4,38.5,152.4,38.3z M199.9,38.1L189,13.5
		c-0.1-0.3-0.3-0.4-0.6-0.4H188c-0.3,0-0.5,0.1-0.6,0.4l-11,24.6c-0.1,0.2-0.1,0.5,0,0.7c0.1,0.2,0.3,0.3,0.6,0.3h1.4
		c0.3,0,0.5-0.1,0.6-0.4l2.6-6h0l6.3-14.3h0.3l6.3,14.3l2.6,5.9c0.1,0.3,0.3,0.4,0.6,0.4h1.4c0.3,0,0.5-0.1,0.6-0.3
		C200,38.5,200,38.3,199.9,38.1"/>
	<path class="st1" d="M37.7,13V2.7c0-1.5-1.6-2.7-3.5-2.7s-3.5,1.2-3.5,2.7V13L37.7,13L37.7,13z"/>
	<path class="st2" d="M30.6,15.7v31.6c0,1.5,1.6,2.7,3.5,2.7s3.5-1.2,3.5-2.7V15.7L30.6,15.7L30.6,15.7z"/>
	<path class="st1" d="M27.5,23.9V12.8c0-1.5-1.6-2.7-3.5-2.7c-1.9,0-3.5,1.2-3.5,2.7v11.1H27.5z"/>
	<path class="st2" d="M20.4,26.6v15.8c0,1.5,1.6,2.7,3.5,2.7c1.9,0,3.5-1.2,3.5-2.7V26.6H20.4z M10.2,31.7v8.4
		c0,1.5,1.6,2.7,3.5,2.7c1.9,0,3.5-1.2,3.5-2.7v-8.4H10.2z"/>
	<path class="st1" d="M17.3,29v-6.5c0-1.5-1.6-2.7-3.5-2.7c-1.9,0-3.5,1.2-3.5,2.7v6.5L17.3,29L17.3,29z"/>
	<path class="st2" d="M0.1,33.9v3.6c0,1.5,1.6,2.7,3.5,2.7c1.9,0,3.5-1.2,3.5-2.7v-3.6L0.1,33.9L0.1,33.9z"/>
	<path class="st1" d="M7.1,31.2v-3c0-1.5-1.6-2.7-3.5-2.7S0,26.7,0,28.2v3L7.1,31.2L7.1,31.2z"/>
</g>
</svg>
