<?xml version="1.0" encoding="utf-8"?>
<!-- Generator: Adobe Illustrator 24.3.0, SVG Export Plug-In . SVG Version: 6.00 Build 0)  -->
<svg version="1.1" xmlns="http://www.w3.org/2000/svg" xmlns:xlink="http://www.w3.org/1999/xlink" x="0px" y="0px"
	 viewBox="0 0 1255.75 708.66" style="enable-background:new 0 0 1255.75 708.66;" xml:space="preserve">
<style type="text/css">
	.st0{display:none;}
	.st1{display:inline;fill:#0050AA;stroke:#1A171B;stroke-miterlimit:10;}
	.st2{clip-path:url(#SVGID_2_);fill-rule:evenodd;clip-rule:evenodd;fill:#E5418C;}
	.st3{clip-path:url(#SVGID_4_);fill-rule:evenodd;clip-rule:evenodd;fill:#FFFFFF;}
	.st4{clip-path:url(#SVGID_6_);fill-rule:evenodd;clip-rule:evenodd;fill:#4C0E2A;}
	.st5{clip-path:url(#SVGID_6_);fill-rule:evenodd;clip-rule:evenodd;fill:#981C55;}
	.st6{fill:#E5418C;}
	.st7{fill:#FAD9E8;}
</style>
<g id="Calque_2" class="st0">
	<rect x="52.67" y="39.27" class="st1" width="1081.89" height="602.36"/>
</g>
<g id="Calque_1">
	<g>
		<g>
			<defs>
				<polygon id="SVGID_1_" points="132.98,568.49 717.52,568.49 717.52,139.24 128.26,139.24 				"/>
			</defs>
			<clipPath id="SVGID_2_">
				<use xlink:href="#SVGID_1_"  style="overflow:visible;"/>
			</clipPath>
			<path class="st2" d="M485.09,538.57c-21.1,8.16-42.59,14.55-64.04,19.13l-6.81,1.39l-1.88,0.37l-15.86,2.69l-1.54,0.22
				c-42.25,6.12-83.66,5.07-120.91-3.49c-63.71-14.63-110.01-50-128.71-98.32c-18.7-48.32-8.27-105.65,29-159.35
				c37.27-53.71,98.33-99.41,169.73-127.04c71.4-27.63,147.32-34.94,211.03-20.31c63.72,14.63,110.02,50,128.71,98.31
				c18.7,48.32,8.26,105.64-29.01,159.35C617.55,465.24,556.49,510.94,485.09,538.57"/>
		</g>
		<g>
			<defs>
				<rect id="SVGID_3_" x="221.38" y="316.85" width="377.95" height="135.5"/>
			</defs>
			<clipPath id="SVGID_4_">
				<use xlink:href="#SVGID_3_"  style="overflow:visible;"/>
			</clipPath>
			<path class="st3" d="M356.78,382.59l0-0.22l0.01-58.02c0-2.45,0.97-4.79,2.7-6.52c1.73-1.73,4.07-2.7,6.52-2.7
				c2.44,0,4.79,0.97,6.51,2.7c1.73,1.73,2.7,4.07,2.7,6.52l-0.01,49.02l41.85,0c2.44,0,4.79,0.97,6.51,2.7
				c1.72,1.73,2.7,4.07,2.7,6.52c0,2.45-0.97,4.79-2.7,6.52c-1.73,1.73-4.07,2.7-6.51,2.7l-41.85-0.01l0,49.02
				c0,2.45-0.97,4.79-2.7,6.51c-1.73,1.74-4.07,2.7-6.52,2.71c-2.44-0.01-4.79-0.98-6.51-2.71c-1.73-1.72-2.7-4.07-2.7-6.51
				l0.01-58.02L356.78,382.59z M454.59,315.34c2.45,0,4.79,0.97,6.52,2.7c1.73,1.73,2.7,4.08,2.7,6.51l-0.02,116.29
				c0,2.45-0.97,4.79-2.7,6.51c-1.73,1.74-4.07,2.7-6.52,2.71c-2.44-0.01-4.79-0.98-6.52-2.71c-1.73-1.72-2.7-4.07-2.7-6.51
				l0.02-116.29c0-2.44,0.97-4.79,2.7-6.52C449.8,316.31,452.14,315.33,454.59,315.34 M598.31,406.93
				c0,12.84-5.44,23.23-16.32,31.19c-9.62,7.2-22.04,11.27-37.26,12.22v0.01l-0.68-0.02c-16.96-0.48-30.72-4.61-41.31-12.4
				c-10.88-8.06-16.31-18.46-16.31-31.2l-0.08-55.02h-0.01l-0.04-27.19c0-2.56,1.02-5.02,2.83-6.84c1.81-1.81,4.27-2.82,6.83-2.82
				c2.56,0,5.02,1.02,6.83,2.83c1.81,1.81,2.83,4.27,2.83,6.83v2.18l0.02,0.61l-0.03,74.49c0,9.65,2.3,17.06,9.67,22.17
				c6.84,4.74,16.54,7.29,29.11,7.64c10.76-0.71,19.16-3.19,25.22-7.45c7.27-5.12,9.76-12.51,9.76-22.16v-50.26h-0.02l0-27.21
				c0-2.51,1-4.92,2.77-6.7c1.78-1.77,4.19-2.77,6.7-2.77c2.51,0,4.92,1,6.7,2.78c1.77,1.77,2.77,4.18,2.77,6.7l0.01,2.52l0.01,0.27
				l0.03,4.68L598.31,406.93z M290.42,450.35c-18.58-0.01-36.4-7.14-49.53-19.82c-13.13-12.69-20.51-29.89-20.51-47.82
				c0-17.93,7.39-35.13,20.53-47.82c13.14-12.67,30.96-19.79,49.53-19.79c15.95,0.01,31.33,5.25,43.67,14.75l-0.01,0.01
				c0.24,0.19,0.47,0.41,0.69,0.62c1.73,1.73,2.7,4.08,2.71,6.52l0,0.19c0,2.44-0.97,4.79-2.7,6.52c-1.73,1.73-4.02,2.7-6.46,2.64
				c-2.44-0.07-4.11-0.87-6.57-2.63l-1.08-0.79c-8.78-6.28-19.19-9.72-30.25-9.72c-13.61-0.01-26.66,5.21-36.28,14.5
				c-9.63,9.29-15.03,21.89-15.03,35.02c0,13.14,5.4,25.74,15.02,35.03c9.62,9.29,22.67,14.5,36.28,14.51
				c10.83,0,21.31-3.3,29.98-9.33c2.27-1.44,4.53-2.72,6.49-2.68c2.44,0.06,4.79,0.97,6.52,2.7c1.73,1.72,2.7,4.07,2.71,6.51v0.19
				c-0.04,2.55-0.68,4.7-2.19,5.97l-3.16,2.4C319.04,445.99,304.96,450.35,290.42,450.35"/>
		</g>
		<g>
			<defs>
				<rect id="SVGID_5_" x="471.56" y="181.79" width="642.8" height="130.21"/>
			</defs>
			<clipPath id="SVGID_6_">
				<use xlink:href="#SVGID_5_"  style="overflow:visible;"/>
			</clipPath>
			<path class="st4" d="M996.5,274.53l109.33,0.06c4.66,0,6.53,0.07,6.53,0.07s0.56,1.93-1.12,3.44c-0.64,0.58-1.61,1.55-2.79,2.25
				c-10.58,6.26-41.77,16.84-69.63,24.17c-3.66,0.96-23.04,7.48-28.04,4.44C997.21,300.71,996.5,274.53,996.5,274.53"/>
			<path class="st5" d="M1110.46,275.97H604.33c-68.1,0-132.77-36.68-132.77-93.81l490.64,0.22c0,0,50.02-0.58,84.52,15.04
				c54.11,23.1,66.08,74.9,66.08,74.9s0.55,2.51-0.04,4.03c-0.28,0.71-0.55,1.15-1.61,2.11c-0.35,0.32-2.6,1.89-2.6,1.89
				C1108.89,280.04,1114.37,275.97,1110.46,275.97"/>
		</g>
		<g>
			<path class="st6" d="M897.11,349.32c-9.94,0-18.03-7.61-18.03-17.45c0-9.83,8-17.36,17.94-17.36c6.2,0,11.65,2.81,15.07,7.89
				c1.11,1.63,1.99,3.53,2.31,5.48h-9.15c-1.34-3.44-4.44-5.85-8.28-5.85c-5.55,0-9.15,4.62-9.15,9.79c0,5.17,3.61,9.97,9.2,9.97
				c3.84,0,6.7-2.36,8.23-5.66h9.15C912.41,344.06,905.38,349.32,897.11,349.32z"/>
			<path class="st6" d="M918.92,348.68v-33.54h19v7.52h-10.63v5.21h10.31v7.52h-10.31v5.76h10.63v7.52H918.92z"/>
			<path class="st6" d="M964.6,348.68l-13.04-20.39l-0.09,0.05l0.23,20.35h-8.37v-33.54h7.54l13.22,21.07l0.09-0.09l-0.37-20.98
				h8.37v33.54H964.6z"/>
			<path class="st6" d="M991.28,322.67v26.01h-8.74v-26.01h-6.75v-7.52h22.19v7.52H991.28z"/>
			<path class="st6" d="M1017.86,348.68l-7.91-10.83h-0.09v10.83h-8.37v-33.54h10.82c3.61,0,7.58,0.09,10.54,2.4
				c2.82,2.22,4.21,5.66,4.21,9.15c0,5.17-3.1,9.7-8.51,10.56l9.29,11.42H1017.86z M1013.05,322.67h-3.19v9.34h3.1
				c3.28,0,5.73-1.36,5.73-4.8C1018.69,323.89,1016.06,322.67,1013.05,322.67z"/>
			<path class="st6" d="M1031.68,348.68v-33.54h19v7.52h-10.63v5.21h10.31v7.52h-10.31v5.76h10.63v7.52H1031.68z"/>
		</g>
		<g>
			<path class="st6" d="M783.37,397.07v-13.41h-11.19v13.41h-8.74v-33.54h8.74v12.6h11.19v-12.6h8.74v33.54H783.37z"/>
			<path class="st6" d="M814.81,397.71c-9.66,0-17.99-7.34-17.99-17c0-2.49,0.42-4.85,1.34-7.16c0.51-1.31,1.34-2.63,2.22-3.76
				c3.51-4.53,8.65-6.89,14.47-6.89c9.99,0,18.08,7.52,18.08,17.4C832.93,390.23,824.84,397.71,814.81,397.71z M814.9,370.43
				c-5.59,0-9.34,4.53-9.34,9.79c0,5.35,3.75,9.97,9.43,9.97c5.5,0,9.2-4.71,9.2-9.83C824.2,375.14,820.5,370.43,814.9,370.43z"/>
			<path class="st6" d="M848.05,397.71c-6.89,0-12.34-3.49-12.34-10.65v-1.09h8.69c0,2.18,1.02,4.58,3.56,4.58
				c1.8,0,3.33-1.4,3.33-3.22c0-2.18-1.85-2.9-3.65-3.67c-1.02-0.45-2.03-0.86-3.05-1.27c-4.44-1.81-8.37-4.35-8.37-9.61
				c0-6.25,6.15-9.88,11.97-9.88c3.33,0,7.07,1.22,9.25,3.81c1.76,2.13,2.17,3.99,2.27,6.62h-8.65c-0.28-1.86-0.92-3.26-3.14-3.26
				c-1.53,0-3,1.04-3,2.63c0,0.5,0.05,1,0.32,1.41c0.83,1.36,5.32,3.08,6.75,3.72c4.53,2.04,8,4.35,8,9.61
				C859.98,394.44,854.8,397.71,848.05,397.71z"/>
			<path class="st6" d="M886.28,383.66c-2.96,2.54-6.15,2.9-9.99,2.9h-3.79v10.51h-8.37v-33.54h11.19c3.51,0,7.72,0.14,10.54,2.45
				c2.68,2.22,4.02,5.44,4.02,8.88C889.89,377.95,888.69,381.57,886.28,383.66z M875.74,371.06h-3.24v7.98h3.56
				c2.87,0,5.46-0.63,5.46-4.03C881.52,371.51,878.61,371.06,875.74,371.06z"/>
			<path class="st6" d="M893.54,397.07v-33.54h8.74v33.54H893.54z"/>
			<path class="st6" d="M921.33,371.06v26.01h-8.74v-26.01h-6.75v-7.52h22.19v7.52H921.33z"/>
			<path class="st6" d="M952.76,397.07l-1.66-4.85h-11.88l-1.8,4.85h-9.39l13.73-33.54h6.89l13.59,33.54H952.76z M945.27,373.96
				h-0.05h-0.09l-3.51,11.47h7.17L945.27,373.96z"/>
			<path class="st6" d="M965.98,397.07v-33.54h8.74v26.01h10.12v7.52H965.98z"/>
			<path class="st6" d="M988.27,397.07v-33.54H997v33.54H988.27z"/>
			<path class="st6" d="M1003.2,397.07v-33.54h19v7.52h-10.63v5.21h10.31v7.52h-10.31v5.76h10.63v7.52H1003.2z"/>
			<path class="st6" d="M1043.97,397.07l-7.91-10.83h-0.09v10.83h-8.37v-33.54h10.82c3.61,0,7.58,0.09,10.54,2.4
				c2.82,2.22,4.21,5.67,4.21,9.15c0,5.17-3.1,9.7-8.51,10.56l9.29,11.42H1043.97z M1039.17,371.06h-3.19v9.34h3.1
				c3.28,0,5.73-1.36,5.73-4.8C1044.81,372.28,1042.17,371.06,1039.17,371.06z"/>
		</g>
		<g>
			<path class="st6" d="M683.41,445.47c-3.07,2.58-7.02,3.63-11.35,3.63c-4.22,0-8.72-1-11.68-3.58c-3.67-3.22-4.06-6.07-4.06-10.33
				v-20.26h10.37v20.26c0,3.04,0.6,6.39,5.26,6.39c4.88,0,5.15-3.22,5.15-6.39v-20.26h10.37v20.26
				C687.47,439.17,686.92,442.57,683.41,445.47z"/>
			<path class="st6" d="M719.94,448.46l-15.46-20.39l-0.11,0.05l0.27,20.35h-9.93v-33.54h8.94L719.33,436l0.11-0.09L719,414.93h9.93
				v33.54H719.94z"/>
			<path class="st6" d="M736.33,448.46v-33.54h10.37v33.54H736.33z"/>
			<path class="st6" d="M775.49,448.46H764.8l-13.54-33.54h10.64l8.17,23.52h0.11l8.23-23.52h10.69L775.49,448.46z"/>
			<path class="st6" d="M793.64,448.46v-33.54h22.54v7.52h-12.61v5.21h12.23v7.52h-12.23v5.76h12.61v7.52H793.64z"/>
			<path class="st6" d="M842.01,448.46l-9.38-10.83h-0.11v10.83h-9.93v-33.54h12.83c4.28,0,8.99,0.09,12.5,2.4
				c3.34,2.22,4.99,5.67,4.99,9.15c0,5.17-3.67,9.7-10.09,10.56l11.02,11.42H842.01z M836.31,422.45h-3.78v9.33h3.67
				c3.89,0,6.8-1.36,6.8-4.8C843,423.67,839.88,422.45,836.31,422.45z"/>
			<path class="st6" d="M870.75,449.1c-8.17,0-14.64-3.49-14.64-10.65v-1.09h10.31c0,2.18,1.21,4.58,4.22,4.58
				c2.14,0,3.95-1.41,3.95-3.22c0-2.18-2.19-2.9-4.33-3.67c-1.21-0.45-2.41-0.86-3.62-1.27c-5.26-1.81-9.93-4.35-9.93-9.61
				c0-6.25,7.29-9.88,14.2-9.88c3.95,0,8.39,1.22,10.97,3.81c2.08,2.13,2.58,3.99,2.69,6.62h-10.25c-0.33-1.86-1.1-3.26-3.73-3.26
				c-1.81,0-3.56,1.04-3.56,2.63c0,0.5,0.05,1,0.38,1.41c0.99,1.36,6.31,3.08,8.01,3.72c5.37,2.04,9.49,4.35,9.49,9.61
				C884.9,445.83,878.76,449.1,870.75,449.1z"/>
			<path class="st6" d="M889.84,448.46v-33.54h10.37v33.54H889.84z"/>
			<path class="st6" d="M922.8,422.45v26.01h-10.37v-26.01h-8.01v-7.52h26.32v7.52H922.8z"/>
			<path class="st6" d="M960.09,448.46l-1.97-4.85h-14.09l-2.14,4.85h-11.13l16.29-33.54h8.17l16.12,33.54H960.09z M951.2,425.35
				h-0.05h-0.11l-4.17,11.47h8.5L951.2,425.35z"/>
			<path class="st6" d="M975.5,448.46v-33.54h10.37v33.54H975.5z"/>
			<path class="st6" d="M1012.63,448.46l-9.38-10.83h-0.11v10.83h-9.93v-33.54h12.83c4.28,0,8.99,0.09,12.5,2.4
				c3.34,2.22,4.99,5.67,4.99,9.15c0,5.17-3.67,9.7-10.09,10.56l11.02,11.42H1012.63z M1006.92,422.45h-3.78v9.33h3.67
				c3.89,0,6.8-1.36,6.8-4.8C1013.61,423.67,1010.49,422.45,1006.92,422.45z"/>
			<path class="st6" d="M1029.03,448.46v-33.54h22.54v7.52h-12.61v5.21h12.23v7.52h-12.23v5.76h12.61v7.52H1029.03z"/>
		</g>
		<g>
			<path class="st7" d="M632.16,255.92l0.39-33.48l-0.13-0.12l-10.31,33.6h-8.16l-10.31-33.6l-0.13,0.12l0.39,33.48h-11.36V211.2
				h15.86l9.59,29.43h0.13l9.46-29.43h15.92v44.73H632.16z"/>
			<path class="st7" d="M679.41,256.77c-13.64,0-25.39-9.79-25.39-22.67c0-3.32,0.59-6.47,1.89-9.55c0.72-1.75,1.89-3.51,3.13-5.02
				c4.96-6.04,12.2-9.19,20.43-9.19c14.1,0,25.52,10.03,25.52,23.21C704.99,246.8,693.57,256.77,679.41,256.77z M679.54,220.38
				c-7.9,0-13.18,6.04-13.18,13.05c0,7.13,5.29,13.3,13.31,13.3c7.77,0,12.99-6.29,12.99-13.12
				C692.66,226.67,687.44,220.38,679.54,220.38z"/>
			<path class="st7" d="M745.59,255.92l-18.4-27.2l-0.13,0.06l0.33,27.14h-11.81V211.2h10.64l18.67,28.1l0.13-0.12l-0.52-27.98
				h11.81v44.73H745.59z"/>
			<path class="st7" d="M787.17,221.23v34.69h-12.33v-34.69h-9.53V211.2h31.33v10.03H787.17z"/>
			<path class="st7" d="M836.77,238.03c-4.18,3.38-8.68,3.87-14.1,3.87h-5.35v14.02h-11.81V211.2h15.79c4.96,0,10.9,0.18,14.88,3.26
				c3.79,2.96,5.68,7.25,5.68,11.85C841.86,230.42,840.16,235.25,836.77,238.03z M821.89,221.23h-4.57v10.64h5.03
				c4.05,0,7.7-0.85,7.7-5.38C830.04,221.83,825.93,221.23,821.89,221.23z"/>
			<path class="st7" d="M850.93,255.92V211.2h26.82v10.03h-15.01v6.95h14.55v10.03h-14.55v7.68h15.01v10.03H850.93z"/>
			<path class="st7" d="M889.63,255.92V211.2h12.33v34.69h14.29v10.03H889.63z"/>
			<path class="st7" d="M925.27,255.92V211.2h12.33v34.69h14.29v10.03H925.27z"/>
			<path class="st7" d="M960.58,255.92V211.2h12.33v44.73H960.58z"/>
			<path class="st7" d="M985.58,255.92V211.2h26.82v10.03h-15.01v6.95h14.55v10.03h-14.55v7.68h15.01v10.03H985.58z"/>
			<path class="st7" d="M1046.99,255.92l-11.16-14.45h-0.13v14.45h-11.81V211.2h15.27c5.09,0,10.7,0.12,14.88,3.2
				c3.98,2.96,5.94,7.56,5.94,12.21c0,6.89-4.37,12.93-12.01,14.08l13.12,15.23H1046.99z M1040.21,221.23h-4.5v12.45h4.37
				c4.63,0,8.09-1.81,8.09-6.41C1048.17,222.86,1044.45,221.23,1040.21,221.23z"/>
		</g>
		<line class="st6" x1="1059.73" y1="276.18" x2="1059.73" y2="449.3"/>
	</g>
</g>
</svg>
