<?xml version="1.0" encoding="UTF-8"?>
<svg width="240px" height="120px" viewBox="0 0 240 120" version="1.1" xmlns="http://www.w3.org/2000/svg" xmlns:xlink="http://www.w3.org/1999/xlink">
    <!-- Generator: Sketch 46.2 (44496) - http://www.bohemiancoding.com/sketch -->
    <title>logo-kentalis</title>
    <desc>Created with Sketch.</desc>
    <defs>
        <polygon id="path-1" points="0 120 240 120 240 0 0 0"></polygon>
    </defs>
    <g id="Page-1" stroke="none" stroke-width="1" fill="none" fill-rule="evenodd">
        <g id="INSTRUCTIE" transform="translate(-90.000000, -3961.000000)">
            <g id="logo-kentalis" transform="translate(90.000000, 3961.000000)">
                <polygon id="Fill-1" fill="#FFFFFF" points="0 120 240 120 240 0 0 0"></polygon>
                <polygon id="Fill-2" fill="#66BB00" points="121 120 240 120 240 0 121 0"></polygon>
                <polygon id="Fill-3" fill="#FFFFFF" points="134.69879 56 132 56 132 45 134.69879 45 134.69879 49.6835595 137.774092 45 140.835948 45 137.303451 50.3741687 141 56 137.942178 56 134.69879 51.066241"></polygon>
                <g id="Group-43">
                    <path d="M150.945176,51.5328 C150.945176,53.9356235 148.988471,55.8612706 146.587059,55.8612706 C144.182824,55.8612706 142.243059,53.9356235 142.243059,51.5328 C142.243059,49.1299765 144.182824,47.2043294 146.587059,47.2043294 C148.988471,47.2043294 150.945176,49.1299765 150.945176,51.5328 Z M146.587059,49.2570353 C145.836,49.2570353 145.200706,50.2735059 145.200706,51.5328 C145.200706,52.7906824 145.836,53.8085647 146.587059,53.8085647 C147.348,53.8085647 147.986118,52.7906824 147.986118,51.5328 C147.986118,50.2735059 147.348,49.2570353 146.587059,49.2570353 Z" id="Fill-4" fill="#FFFFFF"></path>
                    <path d="M157.459482,47.2037647 C159.941365,47.2037647 160.9296,48.7157647 160.9296,50.3407059 L160.9296,55.6870588 L158.099012,55.6870588 L158.099012,51.4856471 L158.099012,51.1185882 C158.099012,49.8155294 157.777129,49.3849412 157.076894,49.3849412 C156.376659,49.3849412 155.950306,49.7505882 155.632659,50.3054118 L155.632659,51.3557647 L155.632659,55.6870588 L152.796424,55.6870588 L152.796424,47.3802353 L153.402071,47.3802353 L154.674071,48.4757647 C155.202071,47.8743529 156.279247,47.2037647 157.459482,47.2037647" id="Fill-6" fill="#FFFFFF"></path>
                    <mask id="mask-2" fill="white">
                        <use xlink:href="#path-1"></use>
                    </mask>
                    <g id="Clip-9"></g>
                    <path d="M163.747765,55.6870588 L166.581176,55.6870588 L166.581176,47.3802353 L163.747765,47.3802353 L163.747765,55.6870588 Z M166.531765,44.5157647 C166.531765,45.2809412 165.910588,45.8682353 165.163765,45.8682353 C164.402824,45.8682353 163.778824,45.2809412 163.778824,44.5157647 C163.778824,43.752 164.402824,43.1294118 165.163765,43.1294118 C165.910588,43.1294118 166.531765,43.752 166.531765,44.5157647 L166.531765,44.5157647 Z" id="Fill-8" fill="#FFFFFF" mask="url(#mask-2)"></path>
                    <path d="M174.047012,47.2037647 C176.531718,47.2037647 177.517129,48.7157647 177.517129,50.3407059 L177.517129,55.6870588 L174.683718,55.6870588 L174.683718,51.4856471 L174.683718,51.1185882 C174.683718,49.8155294 174.368894,49.3849412 173.665835,49.3849412 C172.9656,49.3849412 172.535012,49.7505882 172.218776,50.3054118 L172.218776,51.3557647 L172.218776,55.6870588 L169.382541,55.6870588 L169.382541,47.3802353 L169.988188,47.3802353 L171.260188,48.4757647 C171.788188,47.8743529 172.8696,47.2037647 174.047012,47.2037647" id="Fill-10" fill="#FFFFFF" mask="url(#mask-2)"></path>
                    <polygon id="Fill-11" fill="#FFFFFF" mask="url(#mask-2)" points="182.829176 55.6867765 179.995765 55.6867765 179.995765 43.3041882 182.829176 43.3041882 182.829176 50.6425412 186.093176 47.3785412 189.448941 47.3785412 185.469176 51.3583059 189.797647 55.6867765 186.235765 55.6867765 182.829176 52.3126588"></polygon>
                    <polygon id="Fill-12" fill="#FFFFFF" mask="url(#mask-2)" points="191.285647 55.6856471 194.119059 55.6856471 194.119059 43.3044706 191.285647 43.3044706"></polygon>
                    <path d="M196.924235,55.6870588 L199.757647,55.6870588 L199.757647,47.3802353 L196.924235,47.3802353 L196.924235,55.6870588 Z M199.709647,44.5157647 C199.709647,45.2809412 199.088471,45.8682353 198.341647,45.8682353 C197.576471,45.8682353 196.955294,45.2809412 196.955294,44.5157647 C196.955294,43.752 197.576471,43.1294118 198.341647,43.1294118 C199.088471,43.1294118 199.709647,43.752 199.709647,44.5157647 L199.709647,44.5157647 Z" id="Fill-13" fill="#FFFFFF" mask="url(#mask-2)"></path>
                    <path d="M201.629506,59.2176 C200.806447,59.2176 200.058212,58.8999529 199.487859,58.4241882 L199.898682,56.9446588 C200.230447,57.1211294 200.535388,57.2467765 200.916565,57.2467765 C201.629506,57.2467765 202.221035,56.6721882 202.221035,55.1771294 L202.221035,47.3785412 L205.054447,47.3785412 L205.054447,55.2561882 C205.054447,57.7084235 203.543859,59.2176 201.629506,59.2176 M205.007859,44.5140706 C205.007859,45.2792471 204.385271,45.8679529 203.637035,45.8679529 C202.874682,45.8679529 202.250682,45.2792471 202.250682,44.5140706 C202.250682,43.7517176 202.874682,43.1291294 203.637035,43.1291294 C204.385271,43.1291294 205.007859,43.7517176 205.007859,44.5140706" id="Fill-14" fill="#FFFFFF" mask="url(#mask-2)"></path>
                    <polygon id="Fill-15" fill="#FFFFFF" mask="url(#mask-2)" points="210.347576 55.6867765 207.5184 55.6867765 207.5184 43.3041882 210.347576 43.3041882 210.347576 50.6425412 213.6144 47.3785412 216.971576 47.3785412 212.993224 51.3583059 217.317459 55.6867765 213.755576 55.6867765 210.347576 52.3126588"></polygon>
                    <path d="M222.863859,53.8393412 C223.706682,53.8393412 224.327859,53.5711059 224.834682,53.1405176 L225.903388,54.3659294 C225.124094,55.2101647 223.753271,55.8638118 222.289271,55.8638118 C219.283624,55.8638118 217.500565,53.9353412 217.500565,51.5635765 C217.500565,49.1621647 219.347153,47.2040471 222.081741,47.2040471 C224.658212,47.2040471 226.636094,49.3852235 226.187153,51.9151059 L220.429976,51.9151059 C220.349506,53.0445176 221.302447,53.8393412 222.863859,53.8393412 L222.863859,53.8393412 Z M223.081271,50.2605176 C223.081271,49.5249882 222.584329,48.9856941 221.727388,48.9856941 C221.154212,48.9856941 220.501976,49.4332235 220.197035,50.2605176 L223.081271,50.2605176 Z" id="Fill-16" fill="#FFFFFF" mask="url(#mask-2)"></path>
                    <polygon id="Fill-17" fill="#FFFFFF" mask="url(#mask-2)" points="134.751953 75.1026353 131.918541 75.1026353 131.918541 64.4904 134.751953 64.4904 134.751953 69.0108706 137.980659 64.4904 141.195247 64.4904 137.486541 69.6786353 141.367482 75.1026353 138.157129 75.1026353 134.751953 70.3492235"></polygon>
                    <path d="M147.603247,73.2566118 C148.447482,73.2566118 149.070071,72.9897882 149.574071,72.5577882 L150.642776,73.7846118 C149.864894,74.6288471 148.495482,75.2824941 147.032894,75.2824941 C144.024424,75.2824941 142.242776,73.3540235 142.242776,70.9836706 C142.242776,68.5794353 144.089365,66.6227294 146.822541,66.6227294 C149.401835,66.6227294 151.375482,68.8053176 150.927953,71.3352 L145.169365,71.3352 C145.088894,72.4632 146.043247,73.2566118 147.603247,73.2566118 L147.603247,73.2566118 Z M148.163718,69.6792 C148.163718,68.9436706 147.6696,68.4043765 146.809835,68.4043765 C146.235247,68.4043765 145.583012,68.8533176 145.282306,69.6792 L148.163718,69.6792 Z" id="Fill-18" fill="#FFFFFF" mask="url(#mask-2)"></path>
                    <path d="M157.801271,66.6224471 C160.283153,66.6224471 161.269976,68.1330353 161.269976,69.7579765 L161.269976,75.1043294 L158.436565,75.1043294 L158.436565,70.9029176 L158.436565,70.5372706 C158.436565,69.2342118 158.118918,68.8050353 157.420094,68.8050353 C156.718447,68.8050353 156.289271,69.1692706 155.970212,69.7255059 L155.970212,70.7744471 L155.970212,75.1043294 L153.1368,75.1043294 L153.1368,66.7989176 L153.743859,66.7989176 L155.017271,67.8930353 C155.539624,67.2916235 156.619624,66.6224471 157.801271,66.6224471" id="Fill-19" fill="#FFFFFF" mask="url(#mask-2)"></path>
                    <path d="M167.902165,75.2805176 C166.196753,75.2805176 164.578871,74.0551059 164.578871,71.8922824 L164.578871,68.7369882 L162.711106,68.7369882 L162.711106,68.1341647 L166.8024,63.8692235 L167.408047,63.8692235 L167.408047,66.7986353 L170.528047,66.7986353 L170.528047,68.7369882 L167.408047,68.7369882 L167.408047,71.5901647 C167.408047,72.9412235 168.0744,73.3873412 168.997694,73.3873412 C169.397224,73.3873412 170.272518,73.0668706 170.528047,72.8141647 L170.528047,74.4504 C170.019812,74.9755765 168.665929,75.2805176 167.902165,75.2805176" id="Fill-20" fill="#FFFFFF" mask="url(#mask-2)"></path>
                    <path d="M180.12,75.1026353 L179.006118,74.1482824 C178.290353,74.8499294 177.350118,75.2805176 176.302588,75.2805176 C174.088941,75.2805176 172.305882,73.3548706 172.305882,70.9534588 C172.305882,68.5464 174.088941,66.6221647 176.302588,66.6221647 C177.350118,66.6221647 178.290353,67.0358118 179.006118,67.7529882 L180.12,66.7986353 L180.724235,66.7986353 L180.724235,75.1026353 L180.12,75.1026353 Z M176.649882,68.6748706 C175.903059,68.6748706 175.266353,69.6955765 175.266353,70.9534588 C175.266353,72.2085176 175.903059,73.2278118 176.649882,73.2278118 C177.413647,73.2278118 178.050353,72.2085176 178.050353,70.9534588 C178.050353,69.6955765 177.413647,68.6748706 176.649882,68.6748706 L176.649882,68.6748706 Z" id="Fill-21" fill="#FFFFFF" mask="url(#mask-2)"></path>
                    <polygon id="Fill-22" fill="#FFFFFF" mask="url(#mask-2)" points="183.540706 75.1030588 186.375529 75.1030588 186.375529 62.7218824 183.540706 62.7218824"></polygon>
                    <path d="M189.862588,75.1044706 L192.691765,75.1044706 L192.691765,66.7990588 L189.862588,66.7990588 L189.862588,75.1044706 Z M192.645176,63.9331765 C192.645176,64.6983529 192.026824,65.2856471 191.275765,65.2856471 C190.516235,65.2856471 189.890824,64.6983529 189.890824,63.9331765 C189.890824,63.1694118 190.516235,62.5496471 191.275765,62.5496471 C192.026824,62.5496471 192.645176,63.1694118 192.645176,63.9331765 L192.645176,63.9331765 Z" id="Fill-23" fill="#FFFFFF" mask="url(#mask-2)"></path>
                    <path d="M200.933929,69.4390588 C200.489224,69.1694118 199.294871,68.6456471 198.548047,68.6456471 C198.118871,68.6456471 197.753224,68.8517647 197.753224,69.1538824 C197.753224,70.1421176 201.920753,69.6310588 201.920753,72.528 C201.920753,74.1670588 200.156047,75.2823529 198.387106,75.2823529 C197.132047,75.2823529 195.939106,74.9308235 194.9184,74.2432941 L195.2544,72.4291765 C196.272282,72.9247059 197.483576,73.2282353 198.101929,73.2282353 C198.629929,73.2282353 199.104282,73.0503529 199.104282,72.6861176 C199.104282,71.7303529 194.9184,72.1934118 194.9184,69.2004706 C194.9184,67.6094118 196.445929,66.576 198.310871,66.576 C199.601224,66.576 200.633224,66.9585882 201.682165,67.8310588 L200.933929,69.4390588 Z" id="Fill-24" fill="#FFFFFF" mask="url(#mask-2)"></path>
                    <polygon id="Fill-25" fill="#D60006" mask="url(#mask-2)" points="0 119.994353 39.1990588 119.994353 39.1990588 80.7967059 0 80.7967059"></polygon>
                    <polygon id="Fill-26" fill="#D60006" mask="url(#mask-2)" points="40.3976471 119.994353 79.5967059 119.994353 79.5967059 80.7967059 40.3976471 80.7967059"></polygon>
                    <polygon id="Fill-27" fill="#D60006" mask="url(#mask-2)" points="80.7967059 119.994353 119.995765 119.994353 119.995765 80.7967059 80.7967059 80.7967059"></polygon>
                    <polygon id="Fill-28" fill="#D60006" mask="url(#mask-2)" points="0 79.5967059 39.1990588 79.5967059 39.1990588 40.3976471 0 40.3976471"></polygon>
                    <polygon id="Fill-29" fill="#D60006" mask="url(#mask-2)" points="40.3976471 79.5967059 79.5967059 79.5967059 79.5967059 40.3976471 40.3976471 40.3976471"></polygon>
                    <polygon id="Fill-30" fill="#D60006" mask="url(#mask-2)" points="80.7967059 79.5952941 119.995765 79.5952941 119.995765 40.3962353 80.7967059 40.3962353"></polygon>
                    <polygon id="Fill-31" fill="#D60006" mask="url(#mask-2)" points="0 39.1990588 39.1990588 39.1990588 39.1990588 0.00141176471 0 0.00141176471"></polygon>
                    <polygon id="Fill-32" fill="#D60006" mask="url(#mask-2)" points="40.3976471 39.1990588 79.5967059 39.1990588 79.5967059 0.00141176471 40.3976471 0.00141176471"></polygon>
                    <polygon id="Fill-33" fill="#D60006" mask="url(#mask-2)" points="80.7967059 39.1990588 119.995765 39.1990588 119.995765 0.00141176471 80.7967059 0.00141176471"></polygon>
                    <polygon id="Fill-34" fill="#FFFFFF" mask="url(#mask-2)" points="15.6508235 33.0834353 11.1628235 33.0834353 11.1628235 6.12437647 15.6508235 6.12437647 15.6508235 18.5295529 24.5407059 6.12437647 30.0437647 6.12437647 20.5792941 19.2989647 30.4842353 33.0834353 24.9896471 33.0834353 15.6508235 20.0655529"></polygon>
                    <polygon id="Fill-35" fill="#FFFFFF" mask="url(#mask-2)" points="53.2452706 6.12338824 66.7022118 6.12338824 66.7022118 10.6085647 57.7332706 10.6085647 57.7332706 16.0269176 66.7022118 16.0269176 66.7022118 20.5106824 57.7332706 20.5106824 57.7332706 28.5972706 66.7022118 28.5972706 66.7022118 33.0838588 53.2452706 33.0838588"></polygon>
                    <polygon id="Fill-36" fill="#FFFFFF" mask="url(#mask-2)" points="105.401929 6.12338824 109.446635 6.12338824 109.446635 33.0838588 106.047106 33.0838588 95.4998118 15.8631529 95.4998118 33.0838588 91.4579294 33.0838588 91.4579294 6.12338824 94.8136941 6.12338824 105.401929 23.3384471"></polygon>
                    <polygon id="Fill-37" fill="#FFFFFF" mask="url(#mask-2)" points="9.65491765 51.0062118 9.65491765 46.5196235 29.4153882 46.5196235 29.4153882 51.0062118 21.7777412 51.0062118 21.7777412 73.4800941 17.2939765 73.4800941 17.2939765 51.0062118"></polygon>
                    <path d="M55.3829647,73.5048 L50.8949647,73.5048 L50.8949647,56.4464471 C50.8949647,49.7744471 54.9340235,46.0996235 59.8681412,46.0996235 C64.8403765,46.0996235 68.8794353,49.7744471 68.8794353,56.4464471 L68.8794353,73.5048 L64.3519059,73.5048 L64.3519059,64.5330353 L55.3829647,64.5330353 L55.3829647,73.5048 Z M64.3519059,56.4464471 C64.3519059,52.4850353 62.3330824,50.5862118 59.8681412,50.5862118 C57.4003765,50.5862118 55.3829647,52.4850353 55.3829647,56.4464471 L55.3829647,60.0422118 L64.3519059,60.0422118 L64.3519059,56.4464471 Z" id="Fill-38" fill="#FFFFFF" mask="url(#mask-2)"></path>
                    <polygon id="Fill-39" fill="#FFFFFF" mask="url(#mask-2)" points="19.1126118 109.389035 26.7516706 109.389035 26.7516706 113.877035 14.6232 113.877035 14.6232 86.9179765 19.1126118 86.9179765"></polygon>
                    <polygon id="Fill-40" fill="#FFFFFF" mask="url(#mask-2)" points="57.6914824 91.4179765 53.2034824 91.4179765 53.2034824 86.9299765 66.6646588 86.9299765 66.6646588 91.4179765 62.1780706 91.4179765 62.1780706 109.405271 66.6646588 109.405271 66.6646588 113.887624 53.2034824 113.887624 53.2034824 109.405271 57.6914824 109.405271"></polygon>
                    <path d="M99.6556235,114.172941 C96.7431529,114.172941 94.5633882,113.246824 92.0560941,111.307059 L92.5826824,107.304706 C95.2876235,108.760235 97.5139765,109.689176 99.8165647,109.689176 C101.8368,109.689176 104.421741,108.597882 104.421741,106.416706 C104.421741,101.279294 91.6918588,103.261412 91.6918588,94.2501176 C91.6918588,89.5602353 95.8128,86.3272941 100.585976,86.3272941 C103.617035,86.3272941 105.678212,87.3790588 108.465035,89.5602353 L107.053271,93.1164706 C105.153035,91.8614118 102.888565,90.7743529 100.746918,90.7743529 C98.0377412,90.7743529 96.3817412,92.2256471 96.3817412,93.8449412 C96.3817412,98.6576471 109.155388,97.4392941 109.155388,105.727765 C109.155388,111.264706 104.505035,114.172941 99.6556235,114.172941" id="Fill-41" fill="#FFFFFF" mask="url(#mask-2)"></path>
                    <path d="M113.394918,58.7336471 C112.905035,54.9134118 107.729506,55.2508235 107.729506,55.2508235 C106.213271,52.5642353 103.227388,51.9628235 101.553035,51.8541176 C101.723859,51.4531765 101.829741,51.0522353 101.829741,50.7204706 C101.829741,49.7618824 101.081506,48.984 100.151153,48.984 C99.2264471,48.984 98.4768,49.7618824 98.4768,50.7204706 C98.4768,51.072 98.5840941,51.4757647 98.7591529,51.8611765 C94.5125647,52.2324706 92.9045647,55.1435294 92.9045647,55.1435294 C88.4857412,56.0978824 87.8137412,57.1792941 87.6598588,59.0117647 C87.4593882,61.3637647 92.3709176,67.4174118 92.3709176,67.4174118 L92.3709176,71.1825882 L108.1488,71.1825882 L108.1488,67.6221176 C110.070212,66.5534118 113.839624,62.2051765 113.394918,58.7336471 L113.394918,58.7336471 Z M94.5111529,66.7722353 C86.6758588,59.2221176 92.2932706,56.3604706 92.2932706,56.3604706 C90.5949176,59.6103529 95.1506824,66.5844706 95.1506824,66.5844706 L94.5111529,66.7722353 Z M97.1949176,66.2823529 C97.1949176,66.2823529 92.2495059,56.7501176 98.6448,53.3534118 L99.1389176,66.3303529 L97.1949176,66.2823529 Z M103.345976,67.1689412 L101.297506,67.1124706 C101.297506,67.1124706 103.107388,57.8823529 101.553035,53.0442353 C101.553035,53.0442353 108.529976,54.5491765 103.345976,67.1689412 L103.345976,67.1689412 Z M107.599624,66.7157647 L105.425506,66.6084706 C105.425506,66.6084706 109.216094,61.3030588 108.415624,56.6329412 C108.415624,56.6329412 113.661741,57.984 107.599624,66.7157647 L107.599624,66.7157647 Z" id="Fill-42" fill="#FFFFFF" mask="url(#mask-2)"></path>
                </g>
            </g>
        </g>
    </g>
</svg>